# xmcd
#
# Track frame offsets: 
#        150
#        14470
#        31295
#        47222
#        59395
#        71570
#        88535
#        106577
#        121052
#        132682
#        144280
#        159577
#        172952
#        187202
#        198815
#        210310
#
# Disc length: 3050 seconds
#
# Revision: 0
# Processed by: cddbd v1.4PL0 Copyright (c) Steve Scherf et al.
# Submitted via: ExactAudioCopy v0.90a11
#
DISCID=d90be810
DTITLE=Gray Bartlett and Brendan Dugan and Jodi Vaughan - Together Again
DYEAR=1900
DGENRE=
TTITLE0=Queen Of The Silver Dollar
TTITLE1=Love Is Blue
TTITLE2=Running Kind - Lonesome Fugitive
TTITLE3=Carolina Moon
TTITLE4=No Fool Like An Old Fool
TTITLE5=Only You
TTITLE6=Country Roads
TTITLE7=Driving My Life Away
TTITLE8=Bad Moon Rising
TTITLE9=Romance D' Amor
TTITLE10=Girls' Night Out
TTITLE11=On The Other Hand
TTITLE12=If I Needed You
TTITLE13=Cavatina
TTITLE14=The Race Is On
TTITLE15=Wind Beneath My Wings
EXTD=
EXTT0=
EXTT1=
EXTT2=
EXTT3=
EXTT4=
EXTT5=
EXTT6=
EXTT7=
EXTT8=
EXTT9=
EXTT10=
EXTT11=
EXTT12=
EXTT13=
EXTT14=
EXTT15=
PLAYORDER=
